<svg width="45" height="45" viewBox="0 0 45 45" fill="none" xmlns="http://www.w3.org/2000/svg">
<g clip-path="url(#clip0_99_482)">
<path d="M16.8809 15.4688C16.8809 16.5876 16.4364 17.6607 15.6452 18.4519C14.854 19.243 13.781 19.6875 12.6621 19.6875C11.5432 19.6875 10.4702 19.243 9.679 18.4519C8.88783 17.6607 8.44336 16.5876 8.44336 15.4688C8.44336 14.3499 8.88783 13.2768 9.679 12.4856C10.4702 11.6945 11.5432 11.25 12.6621 11.25C13.781 11.25 14.854 11.6945 15.6452 12.4856C16.4364 13.2768 16.8809 14.3499 16.8809 15.4688Z" fill="#85B6FF"/>
<path d="M5.63086 2.8125C4.13902 2.8125 2.70828 3.40513 1.65338 4.46002C0.598492 5.51492 0.00585938 6.94566 0.00585938 8.4375V36.5625C0.00585938 38.0543 0.598492 39.4851 1.65338 40.54C2.70828 41.5949 4.13902 42.1875 5.63086 42.1875H39.3809C40.8727 42.1875 42.3034 41.5949 43.3583 40.54C44.4132 39.4851 45.0059 38.0543 45.0059 36.5625V8.4375C45.0059 6.94566 44.4132 5.51492 43.3583 4.46002C42.3034 3.40513 40.8727 2.8125 39.3809 2.8125H5.63086ZM39.3809 5.625C40.1268 5.625 40.8422 5.92132 41.3696 6.44876C41.897 6.97621 42.1934 7.69158 42.1934 8.4375V26.7188L31.5705 21.2428C31.3068 21.1107 31.0082 21.0649 30.7169 21.1118C30.4257 21.1587 30.1566 21.2961 29.9477 21.5044L19.5134 31.9387L12.0321 26.955C11.762 26.7752 11.438 26.6943 11.1151 26.7261C10.7921 26.7578 10.4901 26.9003 10.2602 27.1294L2.81836 33.75V8.4375C2.81836 7.69158 3.11468 6.97621 3.64212 6.44876C4.16957 5.92132 4.88494 5.625 5.63086 5.625H39.3809Z" fill="#85B6FF"/>
</g>
<defs>
<clipPath id="clip0_99_482">
<rect width="45" height="45" fill="white"/>
</clipPath>
</defs>
</svg>
