<svg width="35" height="35" viewBox="0 0 35 35" fill="none" xmlns="http://www.w3.org/2000/svg">
<g clip-path="url(#clip0_40_151)">
<path d="M11.4382 12.4784L34.9971 0C34.9971 0 32.776 1.83917 32.8736 5.82029C32.9778 10.0631 34.9971 11.6408 34.9971 11.6408L32.2287 10.4535L10.5573 18.4396C10.5573 18.4396 10.0312 17.0518 10.0226 16.0059C10.0003 13.4255 11.4382 12.4784 11.4382 12.4784Z" fill="#029DD1"/>
<path d="M6.42626 20.6361L32.1661 11.7729C32.1661 11.7729 29.9449 13.6121 30.0427 17.5935C30.1468 21.8362 32.166 23.4138 32.166 23.4138L28.5699 22.1107L5.46693 26.3918C5.46693 26.3918 5.01898 25.1127 5.0105 24.1636C4.98863 21.583 6.42626 20.6361 6.42626 20.6361Z" fill="#0047BD"/>
<path d="M1.41857 27.8236L28.5765 23.2375C28.5765 23.2375 26.3555 25.0766 26.4531 29.0578C26.5572 33.3006 28.5765 34.8783 28.5765 34.8783H1.62129C1.62129 34.8783 0.0267323 33.9665 0.00281052 31.2187C-0.0190608 28.638 1.41857 27.8236 1.41857 27.8236Z" fill="#4817A1"/>
</g>
<defs>
<clipPath id="clip0_40_151">
<rect width="35" height="35" fill="white"/>
</clipPath>
</defs>
</svg>
