<svg width="21" height="21" viewBox="0 0 21 21" fill="none" xmlns="http://www.w3.org/2000/svg">
<g clip-path="url(#clip0_326_997)">
<path d="M3.50039 9.1V8.4H2.80039V9.1H3.50039ZM9.10039 9.1V8.4H8.40039V9.1H9.10039ZM9.10039 14.7H8.40039V15.4H9.10039V14.7ZM18.9004 4.9H19.6004V4.6102L19.396 4.4044L18.9004 4.9ZM14.7004 0.7L15.196 0.2044L14.9902 0H14.7004V0.7ZM3.50039 9.8H4.90039V8.4H3.50039V9.8ZM4.20039 15.4V11.9H2.80039V15.4H4.20039ZM4.20039 11.9V9.1H2.80039V11.9H4.20039ZM4.90039 11.2H3.50039V12.6H4.90039V11.2ZM5.60039 10.5C5.60039 10.6857 5.52664 10.8637 5.39536 10.995C5.26409 11.1263 5.08604 11.2 4.90039 11.2V12.6C5.45735 12.6 5.99149 12.3788 6.38531 11.9849C6.77914 11.5911 7.00039 11.057 7.00039 10.5H5.60039ZM4.90039 9.8C5.08604 9.8 5.26409 9.87375 5.39536 10.005C5.52664 10.1363 5.60039 10.3143 5.60039 10.5H7.00039C7.00039 9.94305 6.77914 9.4089 6.38531 9.01508C5.99149 8.62125 5.45735 8.4 4.90039 8.4V9.8ZM8.40039 9.1V14.7H9.80039V9.1H8.40039ZM9.10039 15.4H10.5004V14H9.10039V15.4ZM12.6004 13.3V10.5H11.2004V13.3H12.6004ZM10.5004 8.4H9.10039V9.8H10.5004V8.4ZM12.6004 10.5C12.6004 9.94305 12.3791 9.4089 11.9853 9.01508C11.5915 8.62125 11.0573 8.4 10.5004 8.4V9.8C10.686 9.8 10.8641 9.87375 10.9954 10.005C11.1266 10.1363 11.2004 10.3143 11.2004 10.5H12.6004ZM10.5004 15.4C11.0573 15.4 11.5915 15.1788 11.9853 14.7849C12.3791 14.3911 12.6004 13.857 12.6004 13.3H11.2004C11.2004 13.4857 11.1266 13.6637 10.9954 13.795C10.8641 13.9263 10.686 14 10.5004 14V15.4ZM14.0004 8.4V15.4H15.4004V8.4H14.0004ZM14.7004 9.8H18.2004V8.4H14.7004V9.8ZM14.7004 12.6H16.8004V11.2H14.7004V12.6ZM2.80039 7V2.1H1.40039V7H2.80039ZM18.2004 4.9V7H19.6004V4.9H18.2004ZM3.50039 1.4H14.7004V0H3.50039V1.4ZM14.2048 1.1956L18.4048 5.3956L19.396 4.4044L15.196 0.2044L14.2048 1.1956ZM2.80039 2.1C2.80039 1.91435 2.87414 1.7363 3.00542 1.60503C3.13669 1.47375 3.31474 1.4 3.50039 1.4V0C2.94344 0 2.40929 0.221249 2.01547 0.615076C1.62164 1.0089 1.40039 1.54305 1.40039 2.1H2.80039ZM1.40039 16.8V18.9H2.80039V16.8H1.40039ZM3.50039 21H17.5004V19.6H3.50039V21ZM19.6004 18.9V16.8H18.2004V18.9H19.6004ZM17.5004 21C18.0573 21 18.5915 20.7788 18.9853 20.3849C19.3791 19.9911 19.6004 19.457 19.6004 18.9H18.2004C18.2004 19.0857 18.1266 19.2637 17.9954 19.395C17.8641 19.5263 17.686 19.6 17.5004 19.6V21ZM1.40039 18.9C1.40039 19.457 1.62164 19.9911 2.01547 20.3849C2.40929 20.7788 2.94344 21 3.50039 21V19.6C3.31474 19.6 3.13669 19.5263 3.00542 19.395C2.87414 19.2637 2.80039 19.0857 2.80039 18.9H1.40039Z" fill="#545454"/>
</g>
<defs>
<clipPath id="clip0_326_997">
<rect width="21" height="21" fill="white"/>
</clipPath>
</defs>
</svg>
