<svg width="60" height="60" viewBox="0 0 60 60" fill="none" xmlns="http://www.w3.org/2000/svg">
<path d="M52.5 29.9999C52.5074 34.4668 51.1788 38.8339 48.685 42.5399C46.6284 45.6073 43.8477 48.1207 40.5887 49.8579C37.3298 51.595 33.693 52.5025 30 52.4999C26.307 52.5025 22.6702 51.595 19.4113 49.8579C16.1523 48.1207 13.3716 45.6073 11.315 42.5399C9.35683 39.621 8.10976 36.2838 7.67376 32.796C7.23777 29.3082 7.62499 25.7668 8.80437 22.4556C9.98375 19.1444 11.9225 16.1556 14.4652 13.7288C17.0078 11.302 20.0837 9.50458 23.4463 8.48076C26.8088 7.45694 30.3644 7.23515 33.8281 7.83317C37.2918 8.4312 40.5672 9.8324 43.3918 11.9245C46.2163 14.0165 48.5115 16.7412 50.0932 19.8802C51.6749 23.0191 52.4992 26.485 52.5 29.9999Z" stroke="#003DA3" stroke-width="3.125"/>
<path d="M31.8751 22.5C31.8751 22.9973 31.6776 23.4742 31.3259 23.8258C30.9743 24.1775 30.4974 24.375 30.0001 24.375V30.625C32.155 30.625 34.2216 29.769 35.7454 28.2452C37.2691 26.7215 38.1251 24.6549 38.1251 22.5H31.8751ZM30.0001 24.375C29.5028 24.375 29.0259 24.1775 28.6743 23.8258C28.3227 23.4742 28.1251 22.9973 28.1251 22.5H21.8751C21.8751 24.6549 22.7311 26.7215 24.2549 28.2452C25.7786 29.769 27.8452 30.625 30.0001 30.625V24.375ZM28.1251 22.5C28.1251 22.0027 28.3227 21.5258 28.6743 21.1742C29.0259 20.8225 29.5028 20.625 30.0001 20.625V14.375C27.8452 14.375 25.7786 15.231 24.2549 16.7548C22.7311 18.2785 21.8751 20.3451 21.8751 22.5H28.1251ZM30.0001 20.625C30.4974 20.625 30.9743 20.8225 31.3259 21.1742C31.6776 21.5258 31.8751 22.0027 31.8751 22.5H38.1251C38.1251 20.3451 37.2691 18.2785 35.7454 16.7548C34.2216 15.231 32.155 14.375 30.0001 14.375V20.625ZM12.9151 44.64L9.92012 43.75L9.43262 45.3825L10.5426 46.675L12.9151 44.64ZM47.0851 44.64L49.4576 46.675L50.5676 45.3825L50.0801 43.75L47.0851 44.64ZM22.5001 40.625H37.5001V34.375H22.5001V40.625ZM22.5001 34.375C19.6735 34.3753 16.9224 35.2879 14.6559 36.9769C12.3894 38.666 10.7285 41.0414 9.92012 43.75L15.9101 45.5325C16.3345 44.1144 17.2049 42.871 18.3921 41.987C19.5793 41.1029 21.0199 40.6253 22.5001 40.625V34.375ZM30.0001 49.375C27.2042 49.3784 24.4409 48.7751 21.9008 47.6067C19.3607 46.4383 17.1044 44.7327 15.2876 42.6075L10.5426 46.675C12.9461 49.4846 15.9303 51.7397 19.2894 53.2849C22.6485 54.83 26.3027 55.6284 30.0001 55.625V49.375ZM37.5001 40.625C40.6101 40.625 43.2451 42.6925 44.0901 45.5325L50.0801 43.75C49.2717 41.0414 47.6108 38.666 45.3443 36.9769C43.0778 35.2879 40.3268 34.3753 37.5001 34.375V40.625ZM44.7126 42.6075C42.8958 44.7327 40.6395 46.4383 38.0994 47.6067C35.5594 48.7751 32.796 49.3784 30.0001 49.375V55.625C33.6975 55.6284 37.3517 54.83 40.7109 53.2849C44.07 51.7397 47.0541 49.4846 49.4576 46.675L44.7126 42.6075Z" fill="#003DA3"/>
</svg>
